<?xml version="1.0" standalone="no"?>
<!DOCTYPE svg PUBLIC "-//W3C//DTD SVG 20010904//EN"
 "http://www.w3.org/TR/2001/REC-SVG-20010904/DTD/svg10.dtd">
<svg version="1.0" xmlns="http://www.w3.org/2000/svg"
 width="727.000000pt" height="343.000000pt" viewBox="0 0 727.000000 343.000000"
 preserveAspectRatio="xMidYMid meet">

<g transform="translate(0.000000,343.000000) scale(0.100000,-0.100000)"
fill="#4F8A69" stroke="none">
<path d="M720 3354 c-8 -1 -48 -8 -88 -14 -39 -7 -70 -15 -68 -19 3 -4 -9 -5
-26 -3 -21 3 -33 0 -39 -11 -5 -8 -17 -13 -26 -11 -24 5 -149 -59 -145 -75 1
-7 -3 -11 -10 -9 -15 5 -100 -71 -92 -83 3 -5 1 -9 -4 -9 -13 0 -43 -70 -36
-82 4 -6 2 -8 -4 -5 -13 9 -23 -50 -24 -137 -1 -115 68 -206 167 -222 21 -3
46 -7 57 -9 24 -5 120 12 127 23 4 4 13 8 21 10 26 6 80 52 105 90 30 46 43
135 24 159 -12 14 -12 16 0 8 11 -6 12 -5 5 6 -4 8 -9 19 -10 26 -6 40 -91
121 -136 130 -15 3 -31 10 -34 14 -3 5 -25 9 -49 9 -31 0 -47 -5 -54 -17 -7
-12 -10 -14 -11 -4 0 11 -3 11 -15 1 -8 -7 -15 -9 -15 -5 0 4 -7 2 -15 -5 -8
-7 -12 -17 -8 -24 4 -7 1 -6 -9 2 -13 10 -20 6 -47 -25 -18 -21 -36 -45 -41
-53 -5 -8 -12 -11 -16 -8 -11 12 28 97 60 130 17 18 30 37 28 41 -1 5 2 6 6 3
14 -8 45 31 37 46 -6 10 -5 10 5 1 15 -14 45 -2 68 26 8 9 11 11 8 4 -4 -7 9
-6 42 4 34 10 70 13 127 8 118 -9 124 -10 119 -14 -5 -5 47 -41 59 -41 5 0 5
5 1 12 -4 7 -3 8 5 4 6 -4 8 -12 5 -18 -4 -6 0 -16 9 -23 9 -6 27 -35 40 -63
13 -28 26 -50 28 -48 11 11 17 -204 7 -249 -9 -40 -34 -81 -63 -105 -16 -14
-37 -33 -47 -42 -10 -10 -25 -18 -34 -18 -9 0 -12 -5 -8 -12 5 -10 4 -10 -5
-2 -13 12 -61 7 -61 -6 0 -4 -6 -7 -12 -7 -31 3 -167 -16 -164 -22 3 -4 -11
-5 -30 -3 -24 3 -39 -1 -52 -15 -9 -10 -13 -13 -8 -6 6 9 3 13 -8 13 -9 0 -16
-5 -16 -11 0 -5 -4 -8 -9 -5 -5 3 -26 -2 -47 -11 -22 -9 -41 -17 -44 -17 -8
-1 -74 -48 -91 -65 -8 -9 -18 -24 -22 -33 -3 -10 -11 -18 -18 -18 -6 0 -8 -7
-5 -16 3 -8 2 -13 -3 -10 -14 9 -41 -81 -41 -134 0 -60 27 -153 42 -144 7 5 8
2 3 -6 -8 -13 70 -90 92 -90 6 0 13 -5 15 -11 2 -6 25 -12 50 -13 25 0 44 -4
41 -8 -7 -12 99 -9 159 3 42 9 169 66 187 85 2 2 -2 10 -8 18 -8 10 -9 16 -1
21 6 4 9 1 8 -6 -2 -6 2 -13 9 -16 12 -4 103 79 103 94 0 5 13 23 29 41 17 17
27 32 24 32 -3 0 6 11 20 24 14 13 24 27 21 30 -2 3 -1 4 2 2 3 -2 7 -38 9
-79 3 -78 27 -143 47 -131 7 5 8 3 4 -5 -8 -13 20 -51 37 -51 5 0 15 -7 21
-14 6 -8 18 -16 26 -18 8 -2 20 -8 27 -14 20 -19 177 -37 259 -29 41 4 72 10
70 14 -3 4 8 6 23 3 35 -5 74 14 65 31 -5 9 -4 9 6 0 11 -10 21 -8 49 9 51 30
145 130 146 156 1 4 9 28 19 54 14 35 17 66 15 127 -2 43 -7 82 -10 85 -11 11
-39 -5 -32 -18 10 -15 10 -185 1 -179 -5 2 -8 -4 -8 -15 0 -10 -9 -27 -20 -37
-13 -12 -17 -22 -11 -29 6 -8 0 -11 -20 -10 -16 0 -32 4 -36 7 -11 12 -23 7
-17 -7 3 -8 1 -16 -4 -20 -9 -6 -10 30 0 40 3 3 2 20 -3 37 -5 18 -9 188 -9
378 0 190 -3 349 -7 353 -6 6 -9 20 -15 64 -1 6 -5 12 -10 12 -5 0 -7 4 -4 9
7 11 -63 118 -98 150 -14 14 -26 21 -26 17 0 -5 -9 2 -21 15 -11 13 -18 17
-14 9 6 -13 4 -13 -7 0 -19 23 -118 72 -133 66 -7 -2 -17 0 -21 4 -22 22 -160
40 -292 39 -75 -1 -144 -3 -152 -5z m655 -154 c3 -6 -1 -7 -9 -4 -18 7 -21 14
-7 14 6 0 13 -4 16 -10z m-1078 -145 c0 -8 -4 -12 -9 -9 -5 3 -6 10 -3 15 9
13 12 11 12 -6z m1169 -21 c1 -9 0 -13 -4 -10 -3 4 -7 14 -8 22 -1 9 0 13 4
10 3 -4 7 -14 8 -22z m-891 -283 c3 -5 2 -12 -3 -15 -5 -3 -9 1 -9 9 0 17 3
19 12 6z m295 -6 c-15 -18 -15 -22 0 -40 10 -12 10 -16 2 -11 -10 6 -13 -25
-12 -156 0 -89 1 -169 0 -176 0 -7 -13 -26 -29 -41 -16 -16 -27 -32 -23 -37 4
-4 1 -4 -6 0 -7 4 -24 0 -37 -8 -14 -9 -52 -23 -84 -32 -68 -17 -104 -8 -154
39 -24 21 -28 33 -28 86 -1 34 4 67 10 75 6 7 8 16 4 19 -3 4 0 7 7 7 7 0 11
3 8 6 -9 9 53 70 104 102 26 16 44 33 40 37 -4 5 -1 5 6 1 22 -13 128 67 115
87 -2 4 1 6 9 5 7 -2 12 3 10 10 -1 8 2 11 8 7 7 -4 14 2 17 13 3 12 13 20 23
19 12 -1 16 -5 10 -12z m-536 -173 c3 -5 -1 -9 -9 -9 -8 0 -12 4 -9 9 3 4 7 8
9 8 2 0 6 -4 9 -8z m179 -317 c3 -6 -3 -11 -12 -11 -10 0 -18 5 -18 11 0 7 6
12 13 12 7 0 15 -5 17 -12z m15 -220 c-3 -3 -9 2 -12 12 -6 14 -5 15 5 6 7 -7
10 -15 7 -18z"/>
<path d="M2115 3354 c-72 -9 -145 -28 -145 -36 0 -6 -7 -7 -16 -4 -33 13 -196
-107 -187 -136 2 -5 -2 -8 -7 -8 -5 0 -10 -6 -10 -14 0 -16 27 -29 35 -17 2 5
18 11 33 13 24 3 33 -2 51 -30 13 -19 18 -31 12 -28 -7 5 -10 -130 -8 -438 2
-428 3 -445 22 -467 11 -12 14 -19 7 -15 -10 6 -9 0 2 -23 9 -17 21 -31 27
-31 6 0 8 -4 5 -9 -3 -4 5 -17 17 -28 26 -24 97 -67 97 -59 0 3 16 -2 35 -10
75 -31 325 -26 346 8 6 9 9 10 9 1 0 -9 10 -11 33 -7 47 9 179 73 172 83 -3 5
-21 15 -39 21 -24 8 -40 22 -53 48 -16 34 -18 72 -21 455 -1 244 -6 415 -12
412 -5 -3 -12 0 -16 6 -4 7 -3 9 3 6 6 -4 13 0 17 8 3 8 1 17 -4 20 -6 4 -10
12 -10 18 0 8 4 7 9 -2 8 -12 13 -11 30 10 11 13 20 27 21 30 0 4 16 14 35 23
35 17 125 19 125 3 0 -5 5 -5 10 -2 6 4 10 3 9 -2 -4 -15 39 -95 43 -82 2 7 5
-180 7 -416 1 -235 6 -438 11 -450 5 -13 7 -25 4 -28 -3 -2 9 -25 26 -50 31
-47 122 -113 140 -102 5 3 10 2 10 -4 0 -5 8 -10 18 -10 9 0 43 -6 76 -13 89
-18 378 15 361 42 -3 5 -1 12 5 15 6 4 9 3 8 -2 -5 -13 10 -13 44 2 44 18 50
25 35 44 -10 14 -10 14 5 3 9 -8 22 -10 29 -7 7 5 -4 13 -27 21 -21 7 -47 25
-57 39 -11 14 -24 22 -30 18 -9 -5 -9 -3 0 8 8 10 9 28 3 59 -5 25 -9 219 -10
432 0 270 -4 395 -12 415 -6 15 -10 34 -9 41 1 6 -3 12 -9 12 -6 0 -8 5 -4 12
5 8 2 9 -11 4 -15 -5 -16 -4 -5 9 10 12 6 22 -24 60 -40 48 -70 70 -86 60 -5
-3 -12 0 -16 6 -5 8 -3 9 6 4 9 -5 11 -4 6 3 -11 18 -79 35 -207 51 -116 15
-343 -15 -385 -50 -8 -6 -29 -20 -47 -29 -17 -10 -31 -23 -29 -30 1 -6 -2 -9
-7 -6 -10 6 -68 -64 -63 -77 1 -5 -2 -6 -8 -2 -5 3 -10 0 -10 -7 0 -7 -9 -2
-19 12 -11 13 -18 27 -15 31 6 11 -22 30 -32 21 -4 -4 -3 0 4 9 10 13 8 19 -6
33 -10 9 -21 13 -25 10 -3 -3 -11 4 -17 16 -6 12 -14 19 -17 16 -3 -3 -11 1
-17 9 -6 8 -20 16 -31 18 -11 2 -38 8 -60 14 -49 14 -139 22 -180 17z m326
-121 c13 -16 12 -17 -3 -4 -10 7 -18 15 -18 17 0 8 8 3 21 -13z m-11 -17 c0
-2 -8 -10 -17 -17 -16 -13 -17 -12 -4 4 13 16 21 21 21 13z m194 -4 c2 -4 -4
-8 -14 -8 -10 0 -16 4 -14 8 3 4 9 8 14 8 5 0 11 -4 14 -8z m166 -67 c0 -5 -5
-3 -10 5 -5 8 -10 20 -10 25 0 6 5 3 10 -5 5 -8 10 -19 10 -25z m6 -35 c0 -12
-4 -16 -9 -11 -5 5 -6 14 -3 20 10 15 12 14 12 -9z m-841 -978 c-3 -3 -11 0
-18 7 -9 10 -8 11 6 5 10 -3 15 -9 12 -12z m992 -79 c0 -9 -4 -10 -14 -2 -7 6
-13 12 -13 14 0 1 6 2 13 2 8 0 14 -6 14 -14z m-427 3 c0 -2 -7 -7 -16 -10 -8
-3 -12 -2 -9 4 6 10 25 14 25 6z"/>
<path d="M4035 3354 c-11 -2 -46 -6 -78 -9 -31 -4 -55 -10 -52 -15 3 -4 -5 -6
-17 -2 -16 4 -19 2 -13 -8 5 -9 4 -11 -4 -6 -12 8 -81 -11 -81 -23 0 -3 -14
-12 -32 -19 -17 -6 -29 -15 -25 -18 4 -4 -3 -12 -14 -18 -26 -13 -77 -84 -82
-111 -1 -11 -6 -26 -10 -32 -5 -7 -5 -13 -1 -13 3 0 1 -7 -6 -15 -15 -17 -5
-54 11 -38 5 5 11 20 14 32 6 31 42 88 61 95 22 8 53 -11 59 -37 2 -12 6 -218
8 -457 3 -318 7 -447 17 -478 21 -71 115 -155 188 -168 15 -2 55 -10 90 -16
47 -9 85 -9 160 0 102 13 137 18 137 21 0 1 15 4 34 6 18 1 36 7 40 11 3 5 13
10 21 12 8 2 17 8 18 13 2 5 8 7 13 3 8 -5 13 10 10 29 -1 5 3 6 9 2 6 -3 7
-12 4 -18 -4 -7 2 -3 13 8 12 12 16 22 9 24 -6 2 -19 8 -30 13 -12 7 -16 7
-12 0 3 -6 3 -13 -2 -16 -5 -3 -9 0 -9 7 0 7 -11 31 -26 53 l-26 42 -1 423 c0
276 -4 427 -11 434 -7 7 -8 4 -4 -10 5 -16 5 -17 -3 -5 -7 9 -7 19 -2 26 6 6
6 15 2 19 -4 5 -1 5 6 1 7 -4 10 -13 7 -19 -3 -7 2 -1 12 13 54 73 59 76 120
77 32 0 64 -2 70 -4 18 -7 53 -67 53 -90 0 -12 7 -26 15 -33 11 -9 12 -16 5
-25 -12 -14 -9 -763 3 -805 14 -50 38 -89 73 -119 19 -17 40 -29 45 -25 5 3 8
0 7 -7 -4 -18 61 -51 89 -46 12 2 20 1 18 -4 -10 -15 141 -21 240 -9 55 7 105
12 112 13 7 0 10 4 7 9 -3 5 7 6 22 2 15 -4 25 -3 21 2 -3 5 6 10 20 10 13 1
32 9 42 18 10 9 23 16 29 16 6 0 18 7 27 16 13 14 14 19 3 25 -19 12 -30 11
-22 -2 3 -6 -5 -3 -20 6 -14 9 -24 21 -21 25 5 9 -19 32 -26 25 -9 -9 -11 40
-15 449 -3 231 -8 425 -13 430 -4 6 -6 22 -5 36 3 32 -5 60 -17 60 -6 0 -7 -5
-3 -12 5 -7 3 -8 -5 -3 -9 5 -10 10 -2 18 7 7 5 19 -5 39 -18 35 -89 108 -106
108 -6 0 -19 6 -27 13 -44 37 -232 61 -363 47 -102 -12 -192 -33 -181 -44 4
-4 0 -4 -9 -1 -9 4 -21 -1 -29 -12 -8 -10 -20 -18 -26 -19 -31 -2 -35 -5 -29
-20 3 -8 2 -12 -3 -9 -5 3 -24 -8 -41 -24 -30 -27 -31 -30 -14 -40 17 -11 17
-11 -3 -6 -17 5 -23 2 -23 -10 0 -11 -7 -15 -22 -13 -13 2 -23 8 -23 13 -2 22
-17 55 -26 55 -5 0 -9 5 -9 11 0 24 -96 92 -121 86 -10 -3 -17 -2 -14 3 9 14
-147 41 -200 34z m1110 -46 c5 4 5 1 1 -6 -6 -10 -11 -10 -22 -1 -8 6 -14 14
-14 16 0 3 6 0 13 -6 8 -6 18 -7 22 -3z m-442 -13 c-3 -9 -8 -14 -10 -11 -3 3
-2 9 2 15 9 16 15 13 8 -4z m-272 -1112 c13 -16 12 -17 -3 -4 -17 13 -22 21
-14 21 2 0 10 -8 17 -17z m-600 -40 c13 -16 12 -17 -3 -4 -17 13 -22 21 -14
21 2 0 10 -8 17 -17z"/>
<path d="M6240 3355 c-8 -2 -61 -11 -117 -21 -61 -10 -100 -21 -96 -27 4 -6 1
-7 -6 -3 -7 5 -21 0 -33 -11 -12 -10 -18 -13 -14 -6 9 16 -106 -34 -120 -53
-6 -8 -14 -14 -19 -14 -4 0 -18 -9 -32 -20 -14 -11 -22 -20 -18 -20 4 0 -6
-12 -23 -27 -73 -65 -116 -256 -78 -346 10 -25 20 -36 27 -31 8 5 9 3 5 -5
-18 -29 91 -103 142 -97 17 2 29 0 27 -4 -8 -12 101 -4 135 10 16 7 27 16 24
21 -3 5 2 6 10 3 9 -3 16 -2 16 3 0 6 12 15 26 22 23 10 24 14 13 28 -11 13
-11 15 -1 9 24 -15 56 29 68 93 3 14 7 28 10 33 3 4 1 8 -4 8 -5 0 -8 13 -6
30 2 16 -1 32 -6 35 -5 3 -7 11 -4 18 12 32 -88 129 -148 144 -55 13 -79 15
-95 8 -10 -5 -29 -10 -42 -12 -52 -9 -141 -78 -141 -110 0 -7 -5 -13 -11 -13
-18 0 -2 59 27 97 14 18 22 33 18 33 -6 0 4 10 61 58 11 9 33 23 48 30 15 6
26 16 22 21 -3 5 0 13 6 17 8 4 9 3 5 -4 -4 -7 -1 -12 8 -12 9 0 16 4 16 8 0
8 15 12 53 13 13 0 17 5 13 16 -5 12 -3 13 6 5 7 -6 50 -12 95 -14 44 -2 79
-6 76 -10 -3 -7 8 -9 32 -8 3 1 12 -5 20 -12 34 -31 43 -36 50 -30 5 6 27 -21
31 -38 5 -22 18 -39 27 -33 5 3 7 1 4 -5 -4 -5 1 -30 12 -54 13 -31 19 -71 20
-143 1 -54 5 -103 8 -109 3 -5 2 -6 -3 -3 -6 3 -18 -15 -28 -41 -17 -42 -43
-71 -96 -103 -13 -8 -13 -10 -1 -18 9 -6 23 -1 43 18 28 24 64 79 61 91 -1 3
7 6 18 6 18 0 18 -2 5 -12 -9 -6 -13 -14 -9 -17 3 -4 7 -94 7 -201 1 -107 -1
-193 -3 -190 -6 5 -46 -49 -43 -59 1 -5 -2 -6 -7 -3 -5 3 -19 -2 -32 -12 -13
-10 -46 -25 -73 -32 -44 -12 -68 -14 -120 -11 -8 1 -28 12 -44 26 -16 13 -32
21 -36 18 -4 -4 -4 0 0 10 3 9 2 17 -3 17 -5 0 -10 19 -12 42 -1 23 -5 46 -8
51 -3 6 -1 7 5 3 8 -5 12 1 12 14 0 12 18 47 39 79 31 45 37 61 29 77 -9 18
-9 18 5 1 14 -17 17 -17 69 11 90 48 98 55 86 69 -7 9 -15 10 -29 2 -10 -5
-19 -7 -19 -5 0 3 -18 -1 -40 -9 -22 -8 -42 -14 -45 -14 -29 0 -124 -15 -121
-20 2 -3 -16 -4 -41 -2 -34 2 -48 -1 -59 -15 -9 -11 -12 -13 -9 -6 6 11 3 12
-14 3 -11 -7 -21 -9 -21 -5 0 3 -11 -1 -24 -9 -13 -9 -36 -18 -50 -21 -14 -2
-35 -14 -47 -25 -13 -11 -31 -23 -41 -27 -10 -3 -18 -8 -18 -12 0 -4 -14 -22
-30 -41 -31 -35 -40 -58 -17 -45 6 4 3 -3 -8 -15 -27 -32 -33 -151 -11 -218
21 -63 71 -113 108 -109 15 2 25 -1 22 -6 -3 -5 -13 -7 -21 -3 -13 4 -14 3 -4
-9 17 -20 77 -39 102 -33 10 3 19 1 19 -4 0 -10 92 -12 139 -3 17 4 28 10 26
15 -3 4 0 11 6 15 8 4 9 3 5 -4 -5 -8 1 -12 18 -12 31 0 42 16 25 38 -12 16
-12 16 6 0 17 -16 21 -15 67 8 26 13 48 29 48 34 0 6 6 10 14 10 19 0 117 110
109 123 -3 6 -1 7 5 3 12 -7 62 59 62 83 0 11 3 11 14 1 8 -6 12 -19 9 -27 -4
-10 -2 -14 4 -10 10 6 11 -11 3 -33 -8 -20 7 -70 31 -111 35 -56 106 -110 166
-128 67 -19 192 -24 258 -11 83 16 108 20 123 22 7 1 10 8 7 16 -4 12 -3 13
10 2 8 -7 16 -10 16 -6 1 3 2 10 3 15 0 5 5 13 10 18 5 5 6 3 2 -4 -10 -18 10
-16 28 3 9 8 16 12 16 8 0 -4 11 3 25 16 13 12 22 27 19 31 -3 5 1 9 9 9 9 0
31 33 53 78 32 64 38 89 40 147 3 92 -4 127 -25 123 -12 -3 -15 -13 -14 -38 4
-58 5 -64 17 -79 9 -12 8 -13 -3 -6 -11 6 -13 4 -8 -8 3 -9 2 -19 -3 -22 -6
-4 -10 -21 -10 -38 0 -18 -8 -44 -17 -57 -10 -14 -18 -27 -18 -30 1 -3 -6 -4
-13 -2 -8 2 -11 -1 -8 -6 10 -16 -32 -2 -46 16 -10 11 -14 107 -19 391 -6 395
-10 431 -52 473 -12 11 -16 17 -9 13 10 -5 13 -2 10 11 -2 11 -10 18 -17 16
-7 -1 -10 1 -7 6 6 10 -41 82 -53 82 -4 0 -22 14 -40 30 -34 33 -77 54 -92 44
-5 -3 -8 0 -7 8 2 7 -5 12 -14 12 -10 -1 -15 2 -12 7 2 5 -8 11 -23 15 -15 4
-53 13 -83 21 -50 14 -357 28 -400 18z m-140 -39 c0 -2 -7 -7 -16 -10 -8 -3
-12 -2 -9 4 6 10 25 14 25 6z m-40 -20 c0 -2 -7 -7 -16 -10 -8 -3 -12 -2 -9 4
6 10 25 14 25 6z m640 -6 c-8 -5 -19 -10 -25 -10 -5 0 -3 5 5 10 8 5 20 10 25
10 6 0 3 -5 -5 -10z m-865 -219 c3 -5 2 -12 -3 -15 -5 -3 -9 1 -9 9 0 17 3 19
12 6z m-75 -327 c0 -8 -19 -13 -24 -6 -3 5 1 9 9 9 8 0 15 -2 15 -3z m84 -42
c3 -5 -1 -9 -9 -9 -8 0 -12 4 -9 9 3 4 7 8 9 8 2 0 6 -4 9 -8z m-117 -207 c0
-8 -4 -15 -9 -15 -10 0 -11 14 -1 23 9 10 10 9 10 -8z m-57 -90 c0 -5 -5 -3
-10 5 -5 8 -10 20 -10 25 0 6 5 3 10 -5 5 -8 10 -19 10 -25z m352 -153 c-7 -2
-9 -9 -5 -15 3 -7 2 -8 -2 -4 -16 14 -14 36 3 29 10 -4 12 -7 4 -10z m1102
-90 c-5 -4 -12 -11 -15 -15 -3 -5 -9 -2 -12 5 -3 9 3 14 15 15 11 1 16 -1 12
-5z m-567 -117 c0 -8 -4 -15 -9 -15 -10 0 -11 14 -1 23 9 10 10 9 10 -8z"/>
<path d="M1732 3122 c-5 -9 -12 -29 -16 -44 -5 -23 -3 -27 11 -22 17 5 17 5 1
-6 -24 -15 -23 -29 3 -27 17 1 20 7 17 29 -3 15 -1 28 4 28 5 0 7 4 3 9 -3 5
-1 12 5 16 14 9 12 22 -5 29 -8 3 -19 -2 -23 -12z"/>
<path d="M4148 1868 c-4 -87 -6 -103 -12 -118 -3 -8 -7 -31 -9 -50 -4 -39 -21
-81 -49 -122 -10 -15 -17 -30 -16 -35 2 -4 0 -8 -3 -8 -3 0 -20 -12 -38 -27
-18 -16 -37 -28 -42 -28 -6 0 -7 -5 -3 -12 4 -6 3 -8 -4 -4 -6 3 -26 -2 -45
-13 -62 -35 -137 -46 -389 -57 -130 -5 -168 -10 -168 -21 0 -10 20 -13 80 -13
l79 0 3 -532 c3 -446 5 -537 18 -558 8 -14 14 -29 15 -33 0 -4 11 -20 25 -34
14 -15 18 -23 10 -18 -13 8 -13 7 -1 -8 7 -9 20 -17 27 -17 8 0 14 -4 14 -9 0
-16 53 -44 86 -45 18 0 30 -4 28 -8 -7 -11 77 -21 160 -20 98 1 186 19 204 41
7 9 11 10 7 4 -3 -7 -3 -13 0 -13 12 0 70 33 77 44 4 6 12 12 18 12 23 3 24 5
10 14 -13 9 -13 10 0 10 20 0 72 49 65 61 -4 5 -1 9 5 9 21 0 52 92 48 147 -2
28 0 49 5 46 12 -7 8 11 -8 35 -13 17 -13 21 -2 16 10 -4 13 3 9 26 -3 22 -10
30 -24 30 -16 0 -19 -5 -13 -29 7 -33 8 -116 1 -147 -19 -87 -67 -127 -107
-88 -17 18 -19 46 -21 542 -2 343 0 522 7 523 6 0 52 0 103 -1 76 -1 92 1 92
14 0 13 -19 16 -102 18 -62 2 -102 7 -101 13 1 6 -4 16 -10 24 -9 12 -9 13 0
7 10 -5 11 -1 3 18 -5 14 -6 26 -2 26 4 0 5 95 2 212 -4 156 -8 212 -17 216
-9 2 -14 -10 -15 -40z m-551 -1603 c0 -8 -4 -12 -9 -9 -5 3 -6 10 -3 15 9 13
12 11 12 -6z"/>
<path d="M5182 1813 c2 -52 -1 -93 -6 -93 -5 0 -7 -3 -3 -6 3 -3 -3 -26 -13
-50 -11 -24 -17 -44 -14 -44 3 0 -2 -7 -10 -16 -9 -8 -17 -23 -18 -32 0 -9 -2
-24 -2 -32 -1 -8 -7 -14 -14 -13 -13 3 -108 -66 -105 -77 1 -4 -8 -6 -20 -5
-12 1 -35 -4 -52 -10 -16 -7 -52 -16 -79 -20 -30 -4 -44 -10 -37 -14 10 -6 9
-10 -4 -14 -9 -4 -14 -3 -10 3 12 19 -26 22 -47 4 -12 -11 -18 -13 -13 -5 7
12 -5 13 -76 8 -46 -4 -123 -7 -171 -7 -72 0 -88 -3 -88 -15 0 -12 16 -15 85
-15 l85 0 3 -527 c1 -291 5 -535 9 -543 3 -8 11 -30 18 -48 8 -22 17 -31 27
-28 8 3 11 1 8 -5 -8 -12 23 -62 34 -54 5 3 11 -2 15 -10 3 -8 10 -15 16 -15
6 0 8 6 4 13 -4 7 -3 9 2 4 5 -5 9 -14 9 -20 0 -7 5 -12 10 -13 6 0 17 -3 25
-6 70 -24 103 -30 188 -29 53 1 104 3 112 4 8 2 32 7 53 12 33 6 38 11 33 29
-5 20 -4 20 9 3 15 -20 61 -15 49 5 -4 7 -2 8 5 4 6 -4 19 -2 28 5 8 7 25 18
37 24 11 7 20 17 18 23 -1 7 3 12 9 12 5 0 7 5 4 10 -4 6 -1 9 6 8 14 -4 61
61 53 73 -3 5 0 9 6 9 7 0 9 7 6 16 -4 10 -2 13 6 8 7 -5 9 0 6 14 -4 12 -2
20 3 16 5 -3 9 6 9 20 0 13 3 32 7 42 5 13 3 15 -7 9 -7 -5 -11 -4 -8 1 10 16
18 85 10 80 -4 -2 -8 8 -7 22 0 18 -5 27 -15 27 -15 0 -15 -5 -9 -95 1 -19 -1
-46 -6 -59 -5 -18 -4 -22 6 -16 8 5 6 -1 -3 -12 -10 -11 -18 -26 -18 -34 -1
-16 -16 -36 -49 -64 -14 -11 -21 -14 -16 -6 6 11 3 13 -14 8 -13 -3 -20 -3
-17 0 3 3 0 15 -6 26 -6 12 -11 35 -10 51 1 22 -2 26 -8 16 -6 -9 -10 -10 -10
-3 0 6 5 15 10 18 6 4 10 169 10 461 0 362 -3 454 -12 448 -10 -6 -10 -4 -2 7
6 8 12 22 13 32 3 42 5 46 15 38 6 -5 50 -9 99 -10 73 -2 87 0 87 13 0 14 -16
16 -105 16 l-105 0 -1 238 c-1 130 -2 246 -2 257 0 14 -7 21 -19 21 -18 0 -19
-7 -16 -93z m-562 -1527 c0 -2 -7 -7 -16 -10 -8 -3 -12 -2 -9 4 6 10 25 14 25
6z m1 -39 c-10 -9 -11 -8 -5 6 3 10 9 15 12 12 3 -3 0 -11 -7 -18z m174 -107
c-3 -5 -1 -10 6 -10 7 0 10 -2 7 -5 -3 -3 -13 -2 -22 1 -14 5 -15 9 -4 15 17
11 20 11 13 -1z"/>
<path d="M848 1444 c-4 -3 -34 -7 -67 -9 -34 -2 -80 -10 -104 -16 -23 -7 -53
-13 -67 -15 -14 -2 -26 -8 -28 -13 -2 -5 -10 -7 -19 -4 -12 5 -14 3 -8 -7 5
-8 4 -11 -2 -7 -14 9 -74 -14 -94 -35 -9 -10 -19 -15 -22 -12 -5 5 -49 -19
-73 -41 -6 -5 -33 -28 -58 -50 -74 -62 -169 -193 -131 -178 8 3 12 10 8 16 -4
6 -1 7 7 2 10 -6 9 -11 -5 -22 -11 -7 -22 -13 -25 -13 -12 0 -31 -51 -24 -62
4 -7 2 -8 -4 -4 -7 4 -14 -4 -18 -21 -3 -15 -13 -55 -22 -88 -21 -76 -24 -306
-4 -313 6 -2 9 -8 6 -13 -11 -19 34 -121 49 -112 6 3 7 1 3 -5 -3 -6 0 -16 7
-24 7 -7 14 -17 15 -23 1 -5 6 -10 11 -10 5 0 13 -4 18 -9 5 -5 3 -6 -4 -2
-20 11 -15 -9 5 -27 10 -10 22 -14 27 -10 4 5 5 3 2 -3 -6 -11 26 -44 44 -44
5 0 7 -4 4 -10 -3 -5 1 -10 9 -10 9 0 16 -4 16 -8 0 -11 120 -75 120 -65 0 4
4 3 8 -3 14 -20 137 -57 252 -75 71 -12 170 -19 260 -20 127 0 168 4 265 26
11 2 37 7 59 9 21 3 49 12 62 21 13 8 24 14 24 11 0 -2 17 2 38 9 23 9 36 19
36 30 -2 12 1 13 12 4 10 -8 14 -8 14 0 0 6 6 11 13 11 7 0 30 14 51 31 28 24
36 37 32 53 -4 19 -4 19 8 4 11 -15 13 -15 25 4 8 13 9 24 3 30 -8 8 -61 -28
-97 -68 -5 -6 -25 -17 -42 -24 -18 -7 -33 -20 -33 -29 0 -13 -2 -14 -9 -2 -8
12 -13 12 -35 -3 -14 -9 -26 -14 -26 -10 0 4 -6 1 -14 -5 -41 -35 -318 -26
-366 12 -37 29 -57 36 -71 24 -11 -10 -11 -9 -1 4 10 13 9 19 -1 28 -8 6 -18
7 -22 3 -5 -4 -5 -2 -2 4 3 5 -4 22 -17 37 -12 14 -31 44 -41 66 -10 22 -21
38 -26 36 -4 -3 -11 0 -15 6 -5 8 -3 9 6 4 10 -6 12 -2 7 16 -4 13 -7 30 -7
37 0 7 -4 11 -9 8 -5 -4 -7 4 -3 16 4 16 2 19 -8 13 -8 -5 -11 -4 -7 2 8 13
-3 104 -12 99 -14 -9 -2 270 15 329 9 33 17 74 18 92 0 17 4 29 7 28 6 -5 44
76 41 88 -1 4 3 7 9 7 8 0 7 5 -1 15 -11 13 -10 14 2 10 10 -4 27 12 51 47 20
28 37 48 37 44 0 -4 16 6 35 23 20 17 42 31 50 31 8 0 15 4 15 10 0 5 7 6 17
3 10 -4 14 -2 10 4 -4 6 35 10 113 10 66 0 117 -3 115 -8 -3 -4 12 -13 33 -19
22 -5 51 -19 66 -31 14 -11 31 -17 37 -13 8 5 9 3 5 -5 -5 -8 -1 -14 12 -18
11 -2 25 -16 31 -29 6 -13 15 -24 20 -24 5 0 11 -9 14 -21 3 -12 9 -19 14 -16
4 3 9 -6 9 -19 2 -27 -11 -32 -20 -8 -3 8 -11 12 -16 9 -6 -4 -9 -1 -8 7 2 7
-3 12 -10 10 -6 -1 -11 3 -10 10 5 19 -74 59 -89 46 -10 -8 -12 -7 -7 6 3 9 2
16 -2 17 -5 0 -31 3 -58 5 -27 3 -60 3 -73 -1 -22 -5 -23 -8 -12 -23 13 -16
12 -16 -6 -1 -26 21 -52 14 -33 -9 11 -13 10 -14 -8 -4 -21 11 -47 2 -42 -14
2 -5 -7 -22 -19 -38 -13 -16 -23 -25 -23 -20 0 4 10 19 23 32 l22 25 -26 -17
c-34 -21 -82 -93 -73 -108 4 -6 3 -8 -3 -5 -13 8 -23 -25 -23 -76 0 -33 2 -37
18 -28 14 7 19 6 19 -4 0 -7 -6 -11 -14 -8 -49 19 6 -118 66 -166 21 -17 41
-27 45 -23 4 4 6 0 4 -8 -2 -9 4 -14 14 -14 10 1 15 -2 13 -6 -8 -14 79 -23
152 -17 37 4 69 11 71 17 2 5 8 10 14 10 6 0 31 16 55 36 33 28 41 39 31 45
-10 7 -8 9 6 9 11 0 17 3 13 6 -3 3 3 15 13 26 21 23 35 86 25 120 -5 18 -4
20 4 8 8 -11 11 -5 11 28 0 23 -5 42 -11 42 -5 0 -7 -5 -3 -12 5 -7 3 -8 -6
-3 -11 7 -10 10 1 19 8 6 14 17 13 24 -1 6 -2 21 -3 33 -1 12 -5 17 -13 13 -7
-4 -8 -3 -4 4 9 15 -34 93 -47 85 -6 -3 -7 -1 -3 6 10 15 -13 43 -27 34 -5 -3
-7 -2 -4 4 6 9 -45 66 -57 64 -3 -1 -6 2 -5 6 1 9 -148 84 -175 88 -12 2 -52
10 -91 19 -67 15 -255 22 -267 10z m382 -49 c0 -2 -6 -8 -13 -14 -10 -8 -14
-7 -14 2 0 8 6 14 14 14 7 0 13 -1 13 -2z m23 -19 c4 -10 1 -13 -8 -9 -8 3
-12 9 -9 14 7 12 11 11 17 -5z m-940 -171 c-3 -9 -8 -14 -10 -11 -3 3 -2 9 2
15 9 16 15 13 8 -4z m-106 -110 c0 -8 -4 -12 -9 -9 -5 3 -6 10 -3 15 9 13 12
11 12 -6z m553 -89 c0 -2 -6 -9 -14 -15 -11 -9 -16 -9 -22 0 -4 7 -3 9 4 5 6
-3 13 -2 17 4 6 10 15 14 15 6z m705 -166 c3 -6 -1 -7 -9 -4 -18 7 -21 14 -7
14 6 0 13 -4 16 -10z m-81 -86 c3 -8 2 -12 -4 -9 -6 3 -10 10 -10 16 0 14 7
11 14 -7z"/>
<path d="M2425 1433 c-8 -7 -15 -9 -17 -3 -2 6 -25 6 -67 -1 -35 -6 -59 -14
-53 -18 6 -3 -9 -6 -31 -7 -23 0 -58 -9 -77 -19 -19 -11 -41 -20 -48 -21 -24
-4 -110 -69 -104 -78 3 -5 0 -6 -7 -2 -15 10 -43 -13 -34 -27 3 -5 2 -7 -3 -4
-10 5 -104 -84 -105 -100 -1 -4 -14 -24 -29 -43 -36 -47 -77 -151 -95 -247
-15 -80 -21 -268 -7 -260 4 3 8 -17 9 -43 1 -43 25 -110 39 -110 3 0 2 5 -2
12 -4 7 -3 8 4 4 6 -4 9 -13 5 -21 -3 -9 0 -21 6 -29 6 -7 8 -16 4 -19 -3 -4
2 -9 11 -13 9 -3 14 -10 11 -14 -7 -11 113 -133 165 -167 25 -16 68 -38 95
-48 28 -10 55 -21 60 -25 12 -9 137 -35 210 -45 142 -19 414 4 503 43 21 8 44
17 53 18 32 6 116 49 137 71 7 7 19 13 26 13 19 0 117 97 121 121 2 12 7 24
11 28 4 3 4 -3 0 -13 -7 -19 -6 -19 13 -2 11 10 18 23 15 27 -3 5 0 9 6 9 7 0
9 7 6 16 -3 8 -2 12 4 9 10 -6 53 76 53 101 0 8 5 14 10 14 5 0 7 7 3 15 -3 8
-1 15 3 15 19 0 34 110 34 240 0 111 -3 146 -21 198 -11 34 -24 68 -29 75 -4
6 -8 17 -9 24 -4 22 -65 103 -79 103 -8 0 -17 5 -21 12 -5 7 -2 9 7 4 8 -4 -8
13 -36 38 -27 26 -55 44 -62 42 -7 -3 -12 0 -10 7 1 7 -6 11 -15 11 -10 -1
-16 2 -13 6 5 8 -21 21 -54 26 -8 2 -17 7 -20 12 -3 5 -21 14 -40 20 -28 10
-32 9 -27 -3 4 -11 -3 -9 -23 5 -15 12 -44 22 -64 23 -20 1 -37 5 -37 8 0 4
-43 12 -95 18 -118 15 -273 12 -290 -6z m70 -22 c-3 -6 -11 -11 -16 -11 -5 0
-4 6 3 14 14 16 24 13 13 -3z m151 -53 c9 -21 20 -38 24 -38 4 0 7 -6 8 -12 0
-7 4 -51 9 -98 9 -92 8 -912 -1 -945 -21 -76 -42 -115 -76 -138 -51 -35 -113
-17 -150 44 -14 21 -28 39 -32 39 -3 0 -7 195 -8 433 -1 237 -2 459 -2 492 0
81 9 149 27 191 8 19 13 36 12 38 -4 8 52 46 68 46 9 0 14 4 11 8 -3 5 17 2
44 -7 41 -12 51 -21 66 -53z m-395 5 c13 -16 12 -17 -3 -4 -10 7 -18 15 -18
17 0 8 8 3 21 -13z m-46 -3 c3 -6 -1 -7 -9 -4 -18 7 -21 14 -7 14 6 0 13 -4
16 -10z m-134 -77 c13 -16 12 -17 -3 -4 -10 7 -18 15 -18 17 0 8 8 3 21 -13z
m-71 -67 c0 -2 -8 -10 -17 -17 -16 -13 -17 -12 -4 4 13 16 21 21 21 13z m-115
-96 c-3 -5 -12 -10 -18 -10 -7 0 -6 4 3 10 19 12 23 12 15 0z m-49 -150 c0
-12 -4 -16 -9 -11 -5 5 -6 14 -3 20 10 15 12 14 12 -9z m1498 -375 c-7 -18
-20 -19 -30 -3 -4 6 -3 8 4 4 6 -3 13 -2 17 4 9 15 15 12 9 -5z m-37 -80 c0
-8 -4 -12 -9 -9 -5 3 -6 10 -3 15 9 13 12 11 12 -6z m-1457 -59 c0 -2 -8 -10
-17 -17 -16 -13 -17 -12 -4 4 13 16 21 21 21 13z m1154 -238 c-5 -8 -1 -9 12
-4 14 5 16 4 7 -5 -13 -13 -37 -3 -28 12 4 5 8 9 11 9 3 0 2 -5 -2 -12z m-940
-6 c3 -5 -1 -9 -9 -9 -8 0 -12 4 -9 9 3 4 7 8 9 8 2 0 6 -4 9 -8z m631 -81
c-6 -5 -25 10 -25 20 0 5 6 4 14 -3 8 -7 12 -15 11 -17z m53 -26 c-3 -3 -9 2
-12 12 -6 14 -5 15 5 6 7 -7 10 -15 7 -18z"/>
<path d="M6220 1440 c-114 -11 -160 -21 -160 -33 0 -8 -3 -7 -9 2 -6 9 -11 10
-15 3 -4 -6 -13 -9 -21 -6 -19 8 -87 -15 -80 -27 4 -5 0 -6 -8 -4 -29 12 -197
-83 -197 -110 0 -8 -3 -14 -7 -14 -20 3 -24 -2 -14 -15 9 -11 9 -16 0 -22 -8
-4 -9 -3 -5 4 11 18 -2 14 -23 -5 -15 -15 -30 -42 -35 -63 -1 -3 -8 -16 -16
-30 -9 -17 -14 -58 -14 -125 0 -82 3 -105 18 -128 11 -15 24 -26 31 -23 6 2
12 -2 12 -10 0 -7 -5 -11 -11 -8 -6 3 0 -4 14 -15 38 -32 80 -53 96 -47 7 3
15 2 18 -2 3 -5 34 -9 71 -9 36 -1 63 2 60 7 -3 4 5 6 17 2 14 -3 19 -1 14 6
-4 8 -2 10 8 6 8 -3 22 3 32 15 10 11 22 17 27 14 6 -4 8 1 4 11 -4 11 -3 15
4 10 10 -6 79 60 79 75 0 4 -5 12 -11 18 -8 8 -7 13 2 18 8 5 10 4 5 -3 -4 -7
-3 -12 2 -12 6 0 12 16 14 35 2 19 1 35 -2 35 -4 0 -5 15 -4 33 3 41 -35 113
-59 111 -15 -2 -16 1 -5 14 8 9 8 13 2 9 -7 -4 -14 -1 -17 6 -10 27 -111 65
-122 46 -4 -5 -12 -9 -18 -9 -7 0 -6 4 3 10 12 7 8 10 -15 10 -63 0 -172 -50
-158 -73 3 -5 1 -7 -5 -3 -5 3 -20 -10 -32 -29 -22 -35 -49 -40 -30 -6 5 10 6
21 3 25 -3 3 -1 6 5 6 7 0 12 6 12 13 0 12 32 54 70 92 11 12 20 26 20 33 0 8
5 10 12 6 7 -5 8 -3 3 6 -6 10 -4 12 9 7 13 -5 17 -3 13 7 -4 10 -1 13 8 10 7
-3 24 0 37 7 13 7 25 14 28 14 26 6 78 17 92 19 10 1 20 5 24 9 4 3 14 3 23
-2 9 -4 31 -8 50 -10 18 -1 42 -6 53 -12 11 -6 18 -7 15 -2 -4 5 0 10 8 10 8
0 12 -4 9 -8 -2 -4 6 -15 18 -23 25 -18 42 -21 33 -6 -3 6 1 7 9 4 9 -3 13
-10 11 -15 -8 -12 34 -51 47 -43 6 4 8 3 5 -3 -8 -13 14 -84 24 -77 5 3 6 -2
3 -10 -3 -8 -2 -21 2 -28 5 -7 9 -17 10 -23 12 -88 12 -119 3 -170 -6 -33 -12
-68 -12 -77 -1 -9 -5 -14 -9 -12 -4 3 -10 -5 -13 -18 -6 -22 -78 -82 -100 -84
-5 0 -29 -6 -52 -14 -31 -9 -40 -17 -36 -29 4 -12 2 -13 -4 -3 -8 10 -29 10
-103 2 -51 -6 -98 -14 -104 -18 -6 -3 -18 -5 -27 -4 -9 2 -29 -3 -45 -9 -16
-7 -33 -11 -38 -10 -5 1 -6 -6 -2 -15 5 -14 4 -15 -9 -4 -11 9 -18 10 -28 1
-8 -6 -17 -8 -20 -4 -4 3 -7 1 -7 -5 0 -7 -7 -12 -15 -12 -8 0 -15 -5 -15 -12
0 -6 -3 -9 -6 -5 -3 3 -11 1 -18 -4 -40 -34 -66 -59 -66 -65 0 -4 -7 -12 -16
-18 -8 -6 -16 -18 -17 -26 -2 -8 -7 -22 -12 -30 -5 -8 -11 -53 -12 -99 -3
-105 20 -164 82 -215 23 -20 45 -32 49 -29 3 4 6 2 6 -3 0 -30 230 -53 262
-26 8 6 17 10 20 7 9 -10 68 17 61 28 -3 6 -1 7 5 3 6 -3 34 8 62 25 44 27 49
33 38 48 -12 14 -11 14 4 3 15 -12 21 -10 43 13 23 22 25 28 13 43 -12 15 -11
16 4 4 15 -12 22 -9 53 25 19 21 35 43 35 48 1 17 47 68 53 58 3 -5 7 -32 8
-61 2 -44 5 -50 17 -39 13 10 14 9 3 -11 -10 -19 -10 -30 -1 -53 7 -16 16 -26
20 -24 5 3 12 -5 16 -17 8 -28 45 -59 62 -53 7 3 11 1 8 -4 -9 -14 19 -31 53
-34 17 -1 31 -5 31 -8 0 -4 11 -9 25 -11 16 -4 22 -1 18 6 -4 6 1 5 10 -3 29
-23 220 -15 286 11 14 6 34 12 43 13 10 1 26 9 36 18 10 9 24 17 30 17 7 0 12
5 12 12 0 6 3 9 6 5 10 -9 47 30 39 42 -3 6 0 11 7 11 19 0 50 39 42 52 -4 7
-3 8 4 4 7 -4 12 -1 12 8 0 22 -4 31 -12 29 -4 -2 -4 5 -1 14 4 11 3 14 -5 9
-7 -4 -12 -12 -12 -18 0 -36 -84 -52 -93 -17 -4 13 -10 18 -18 13 -8 -4 -10
-3 -5 5 4 6 10 9 14 7 4 -2 5 163 2 367 -5 331 -8 378 -24 425 -15 40 -23 51
-35 47 -13 -5 -13 -4 -4 6 15 15 -1 49 -23 49 -8 0 -13 4 -9 10 7 11 -64 92
-75 85 -4 -3 -11 2 -14 11 -3 8 -27 24 -53 35 -27 11 -60 27 -76 35 -15 8 -32
12 -37 9 -6 -3 -10 -1 -10 6 0 7 -3 10 -6 7 -3 -3 -33 0 -66 8 -34 8 -78 14
-97 14 -20 0 -63 1 -96 3 -33 2 -94 1 -135 -3z m-32 -115 c-3 -3 -9 2 -12 12
-6 14 -5 15 5 6 7 -7 10 -15 7 -18z m-318 -121 c0 -8 -19 -13 -24 -6 -3 5 1 9
9 9 8 0 15 -2 15 -3z m450 -562 c0 -186 -1 -200 -20 -217 -11 -10 -19 -25 -18
-34 2 -9 -3 -15 -10 -13 -14 2 -104 -43 -98 -49 3 -2 -14 -3 -37 -2 -23 0 -50
-3 -61 -9 -13 -7 -16 -7 -12 1 5 7 -1 11 -15 11 -12 0 -31 8 -42 17 -15 13
-18 14 -12 3 8 -13 7 -13 -10 0 -17 14 -18 13 -12 -3 4 -10 3 -16 -2 -12 -6 3
-9 14 -8 25 1 10 4 17 8 14 4 -2 2 7 -4 20 -7 13 -14 23 -18 21 -8 -6 -4 28 6
44 6 10 4 12 -6 6 -11 -7 -12 -6 -2 7 7 8 14 27 15 42 1 14 5 26 9 26 7 0 30
53 33 75 1 6 7 9 14 8 6 -2 16 6 22 17 6 11 15 18 20 15 10 -6 149 79 162 99
4 6 8 7 8 2 0 -14 41 26 56 56 8 16 19 28 24 28 6 0 10 -76 10 -198z m-63
-294 c2 -17 0 -19 -7 -8 -5 8 -6 18 -4 22 8 12 10 10 11 -14z m815 -65 c-6 -2
-9 -10 -6 -15 4 -7 2 -8 -5 -4 -13 9 -5 26 12 25 9 0 8 -2 -1 -6z m-1478 -61
c3 -5 -1 -9 -9 -9 -8 0 -12 4 -9 9 3 4 7 8 9 8 2 0 6 -4 9 -8z m1406 -6 c0 -2
-7 -7 -16 -10 -8 -3 -12 -2 -9 4 6 10 25 14 25 6z m30 0 c0 -2 -8 -10 -17 -17
-16 -13 -17 -12 -4 4 13 16 21 21 21 13z"/>
<path d="M7110 558 c-1 -6 -1 -214 -1 -226 1 -7 6 -10 12 -7 6 4 8 14 5 22 -3
8 -2 11 4 8 5 -3 9 3 9 12 1 10 4 37 7 61 8 59 -3 132 -22 132 -8 0 -14 -1
-14 -2z"/>
</g>
</svg>
