<?xml version="1.0" encoding="utf-8"?>
<!-- Generator: Adobe Illustrator 24.0.2, SVG Export Plug-In . SVG Version: 6.00 Build 0)  -->
<svg version="1.1" id="Capa_1" xmlns="http://www.w3.org/2000/svg" xmlns:xlink="http://www.w3.org/1999/xlink" x="0px" y="0px"
	 viewBox="0 0 283.5 283.5" style="enable-background:new 0 0 283.5 283.5;" xml:space="preserve">
<style type="text/css">
	.st0{fill:#AFD6C1;}
	.st1{fill:#4F8A69;}
	.st2{fill:#734D76;}
	.st3{fill:none;stroke:#4F8A69;stroke-miterlimit:10;}
	.st4{fill:none;stroke:#AFD6C1;stroke-width:1.0006;stroke-linecap:round;stroke-miterlimit:10;}
	.st5{fill:none;stroke:#4F8A69;stroke-width:0.7087;stroke-miterlimit:10;}
	.st6{fill:none;stroke:#734D76;stroke-width:0.5669;stroke-miterlimit:10;}
	.st7{fill:none;stroke:#734D76;stroke-miterlimit:10;}
	.st8{fill:none;stroke:#734D76;stroke-width:0.4252;stroke-miterlimit:10;}
</style>
<g>
	<g>
		<path class="st1" d="M41.8,177.2v-1.1c-3.6,6.9-10.8,12-17.7,12c-5.4,0-11.4-2.9-11.4-10.2c0-3.9,1.1-6.2,3-8.1
			c2.3-2.3,5-3.5,7.9-4.2c5.4-1.3,11.2-1.1,14.8-3.6c2-1.3,3.3-3.7,3.3-7.8c0-4.4-1-12.7-11-12.7c-7.9,0-12.1,6.1-12.8,9.4
			c1.4-3.1,4.5-5.3,8.3-5.3c4.9,0,9,4.1,9,9c0,5-5.1,9.1-10,9.1c-4.7,0-9.4-2.9-9.4-8.9c0-11.8,10.5-17.3,27.5-17.3
			c16.4,0,23.1,8.4,23.1,17.6v22.2c0,1,0.2,3,1.6,3c1.2,0,1.9-1.8,2.2-2.4c0.5-1.3,0.6-2.8,0.6-3.9c0-2.2-0.5-3.7-0.5-3.8l1.8-0.5
			c0,0.1,0.6,1.9,0.6,4.3c0,2.5-0.6,5.6-2.6,8.4c-3,3.9-7.3,5.9-14.7,5.9C46.3,188.4,41.8,183.8,41.8,177.2z M41.7,174.5v-14.4
			c-2.2,4.9-7.9,5.5-10.9,9c-1.2,1.4-1.9,3.1-1.9,5.5c0,2.3,1.9,4.2,4.3,4.2C36.7,178.8,40,176.9,41.7,174.5z"/>
		<path class="st1" d="M78.7,177.2v-28.3c0,0,0.1-2.5-1.1-3c-1.8-0.7-3.1,2.3-3.1,4.7h-1.9c0.2-2.2,0.8-4.7,2.5-6.8
			c3.1-4.1,8.6-5.9,14.6-5.9c7.4,0,11.7,3.1,13,7.8c3.2-6.1,9.8-7.8,17.5-7.8c11.8,0,16.7,4.7,16.7,14.8v24.5c0,7.3,5,6.2,5,6.2
			c-2.8,3.8-10.3,4.9-16.1,4.9c-8.5,0-13.5-4.2-13.5-11.1v-23.8c0-6-1-7.4-3.2-8.1c-1.3-0.5-4.4-0.1-5.9,3.3v28.6c0,7.3,5,6.2,5,6.2
			c-2.8,3.8-10.3,4.9-16.1,4.9C83.6,188.4,78.7,184.2,78.7,177.2z"/>
		<path class="st1" d="M148,177.2v-28.3c0,0,0.1-2.5-1.1-3c-1.8-0.7-3.1,2.3-3.1,4.7h-1.9c0.2-2.2,0.8-4.7,2.5-6.8
			c3.1-4.1,8.6-5.9,14.6-5.9c7.4,0,11.7,3.1,13,7.8c3.2-6.1,9.8-7.8,17.5-7.8c11.8,0,16.7,4.7,16.7,14.8v24.5c0,7.3,5,6.2,5,6.2
			c-2.8,3.8-10.3,4.9-16.1,4.9c-8.5,0-13.5-4.2-13.5-11.1v-23.8c0-6-1-7.4-3.2-8.1c-1.3-0.5-4.4-0.1-5.9,3.3v28.6c0,7.3,5,6.2,5,6.2
			c-2.8,3.8-10.3,4.9-16.1,4.9C152.9,188.4,148,184.2,148,177.2z"/>
		<path class="st1" d="M243.4,177.2v-1.1c-3.6,6.9-10.8,12-17.7,12c-5.4,0-11.4-2.9-11.4-10.2c0-3.9,1.1-6.2,3-8.1
			c2.3-2.3,5-3.5,7.9-4.2c5.4-1.3,11.2-1.1,14.8-3.6c2-1.3,3.3-3.7,3.3-7.8c0-4.4-1-12.7-11-12.7c-7.9,0-12.1,6.1-12.8,9.4
			c1.4-3.1,4.5-5.3,8.3-5.3c4.9,0,9,4.1,9,9c0,5-5.1,9.1-10,9.1c-4.7,0-9.4-2.9-9.4-8.9c0-11.8,10.5-17.3,27.5-17.3
			c16.4,0,23.1,8.4,23.1,17.6v22.2c0,1,0.2,3,1.6,3c1.2,0,1.9-1.8,2.2-2.4c0.5-1.3,0.6-2.8,0.6-3.9c0-2.2-0.5-3.7-0.5-3.8l1.8-0.5
			c0,0.1,0.6,1.9,0.6,4.3c0,2.5-0.6,5.6-2.6,8.4c-3,3.9-7.3,5.9-14.7,5.9C247.8,188.4,243.4,183.8,243.4,177.2z M243.2,174.5v-14.4
			c-2.2,4.9-7.9,5.5-10.9,9c-1.2,1.4-1.9,3.1-1.9,5.5c0,2.3,1.9,4.2,4.3,4.2C238.2,178.8,241.6,176.9,243.2,174.5z"/>
		<path class="st1" d="M12.8,236.1c0-13.4,8.1-28.5,32.5-28.5c19.7,0,22,13.6,22,13.6s0.7,5.7-1.7,9.3c-1.8,3.1-5.1,5.3-9,5.3
			c-5.7,0-10.3-4.5-10.3-10.3c0-5.6,4.5-10.3,10.3-10.3c3.7,0,7.1,2.2,8.9,5.1c-1.1-2.6-4.8-8.3-13.6-8.3c-10.8,0-14.6,13.3-14.6,21
			c0,7.9,2,21.6,14.2,21.6c12.3,0,16.3-6.8,16.3-6.8l1.1,1.7c0,0-5,8.7-23.6,8.7C21.9,258.4,12.8,248,12.8,236.1z"/>
		<path class="st1" d="M73.6,235.2c0-12.2,7.3-27.6,30.1-27.6c19.7,0,30.1,9,30.1,23.4c0,16.6-11.4,27.4-31.5,27.4
			C80.5,258.4,73.6,245.9,73.6,235.2z M108.6,246.6v-25.4c0-8.3-1.2-11.8-4.8-11.8s-4.7,3.6-4.7,12.2v25.6c0,5,1.1,9.3,4.7,9.3
			S108.6,252.2,108.6,246.6z"/>
		<path class="st1" d="M139.3,247.3v-35.9h-6v-1.8h6.2c17,0,22.2-4.2,22.2-18.8h1.8v18.8h7.7v1.8h-7.4v35.9c0,0-0.1,2.8,1.1,3.1
			c1.6,0.5,2.4-1.7,2.6-2.3c1.2-3.8,0.1-7.7,0.1-7.8l1.8-0.5c0.1,0.4,2,7.3-2,12.7c-3,3.9-7.3,5.9-14.7,5.9
			C143.7,258.4,139.3,253.9,139.3,247.3z"/>
		<path class="st1" d="M177.2,247.3v-35.9h-6v-1.8h6.2c17,0,22.2-4.2,22.2-18.8h1.8v18.8h7.7v1.8h-7.4v35.9c0,0-0.1,2.8,1.1,3.1
			c1.6,0.5,2.4-1.7,2.6-2.3c1.2-3.8,0.1-7.7,0.1-7.8l1.8-0.5c0.1,0.4,2,7.3-2,12.7c-3,3.9-7.3,5.9-14.7,5.9
			C181.6,258.4,177.2,253.9,177.2,247.3z"/>
		<path class="st1" d="M241.2,247.3v-1.1c-3.6,6.9-10.8,12-17.7,12c-5.4,0-11.4-2.9-11.4-10.2c0-3.9,1.1-6.2,3-8.1
			c2.3-2.3,5-3.5,7.9-4.2c5.4-1.3,11.2-1.1,14.8-3.6c2-1.3,3.3-3.7,3.3-7.8c0-4.4-1-12.7-11-12.7c-7.9,0-12.1,6.1-12.8,9.4
			c1.4-3.1,4.5-5.3,8.3-5.3c4.9,0,9,4.1,9,9c0,5-5.1,9.1-10,9.1c-4.7,0-9.4-2.9-9.4-8.9c0-11.8,10.5-17.3,27.5-17.3
			c16.4,0,23.1,8.4,23.1,17.6v22.2c0,1,0.2,3,1.6,3c1.2,0,1.9-1.8,2.2-2.4c0.5-1.3,0.6-2.8,0.6-3.9c0-2.2-0.5-3.7-0.5-3.8l1.8-0.5
			c0,0.1,0.6,1.9,0.6,4.3c0,2.5-0.6,5.6-2.6,8.4c-3,3.9-7.3,5.9-14.7,5.9C245.6,258.4,241.2,253.9,241.2,247.3z M241.1,244.6v-14.4
			c-2.2,4.9-7.9,5.5-10.9,9c-1.2,1.4-1.9,3.1-1.9,5.5c0,2.3,1.9,4.2,4.3,4.2C236.1,248.9,239.4,247,241.1,244.6z"/>
	</g>
</g>
<g>
	<path class="st3" d="M168,80.6c1.9,1,3.9,2.1,5.9,3.3"/>
	<path class="st3" d="M101.8,83.9c0,0,3-2,8.2-4.3"/>
	<path class="st3" d="M172.4,56.3c0,0-4.4-7.3-12.8-8.2l3.3,1c0,0,4,2.3,2.9,4.7c-1,2.5-2.6,2-2.6,2s2.6,4.8-3.8,5.8
		c0,0,0.4,5.5-6.6,5.1l-3.2,0c0,0-4,2.5-10.2,1.4l-3.1-0.3c0,0-12.3,1-17-2.3c0,0-3.7-2-6.3-5l-7,2.2c0,0-5.1,2.9-3.8,6.1
		s3.3,2.6,3.3,2.6s-3.3,6.2,4.9,7.5c0,0-0.6,7.1,8.5,6.5l4.1,0c0,0,5.1,3.3,13.1,1.8l4-0.3c0,0,15.8,1.3,22-3
		c0,0,10.3-5.6,11.1-12.4v-3C173.3,68.6,176.3,60.9,172.4,56.3z"/>
	<path class="st3" d="M144.8,48.2c0,0,2.8-4.1,11.4-1.1l6.7,2.1c0,0,4,2.3,2.9,4.7s-2.6,2-2.6,2s2.6,4.8-3.8,5.8
		c0,0,0.4,5.5-6.6,5.1l-3.2,0c0,0-4,2.5-10.2,1.4l-3.1-0.3c0,0-12.3,1-17-2.3c0,0-8-4.3-8.6-9.6v-2.3c0,0-2.4-5.9,0.7-9.5
		c0,0,3.7-6.2,10.8-6.5c0,0,5.6,0.8,6.7,2.6c0,0,2.9,3.8,0.2,5.9c0,0,6-3,10.6-0.5C144.4,48.3,144.8,48.2,144.8,48.2z"/>
	<g>
		<g>
			<g>
				<polygon class="st4" points="141,93.2 136.9,90.2 132.4,92.4 128.8,89.4 125,91.7 122.2,88.4 119,91.8 115,87.5 110.8,90 
					109.2,87 104.7,87.5 106.1,84.4 101.8,84.4 101.8,83.9 106.9,83.9 105.6,86.9 109.5,86.4 111,89.3 115.1,86.9 119,91 
					122.2,87.6 125.1,91 128.8,88.8 132.4,91.7 137,89.6 141,92.5 144.8,89.6 148.9,91.7 153.2,88.2 156.9,90.9 159.5,88.1 
					165.3,89.2 167.4,85.7 171.7,85.7 170.3,83.4 174.1,82.9 174.2,83.4 171.2,83.8 172.6,86.3 167.7,86.3 165.5,89.8 159.7,88.7 
					157,91.6 153.2,88.9 148.9,92.4 144.9,90.2 				"/>
			</g>
			<g>
				<path class="st4" d="M139.3,130.8c-0.2,0-0.4,0-0.6,0c-12.1-0.3-22.7-6.4-22.8-6.5l-0.1,0l0-0.1l-14.2-40l0.5-0.2l14.2,39.9
					c1,0.6,11,6.1,22.5,6.4c11.4,0.3,22.8-6.6,23.9-7.3l11.2-39.9l0.5,0.1l-11.3,40.1l-0.1,0.1C162.9,123.5,151.3,130.8,139.3,130.8
					z"/>
			</g>
		</g>
	</g>
	<g>
		<g>
			<g>
				<g>
					<path class="st0" d="M110.8,89.8c0.7,2.2,1.7,4.5,2.5,6.8c0.7,2.3,1.6,4.6,2,7c0.1,1.2,0.2,2.4,0.3,3.6
						c0.1,1.2,0.4,2.3,0.7,3.5c0.7,2.3,1.6,4.6,2,7.1l-1,0.2c-0.5-2.3-1.5-4.5-2.3-6.9c-0.4-1.2-0.7-2.4-0.8-3.6
						c-0.1-1.2-0.2-2.4-0.3-3.6c-0.2-2.4-1-4.7-1.6-7C111.9,94.4,111.4,92,110.8,89.8z M110.8,89.8c0.7,2.5,1.5,4.7,2.1,7
						c0.7,2.3,1.6,4.6,1.9,7.1c0.1,1.2,0.3,2.4,0.4,3.6c0.1,1.2,0.4,2.3,0.8,3.4c0.7,2.3,1.8,4.5,2.4,6.9l-1,0.2
						c-0.3-2.3-1.2-4.6-1.9-6.9c-0.3-1.2-0.6-2.4-0.7-3.6l-0.2-3.6c-0.3-2.4-1.1-4.7-1.7-7C112.2,94.5,111.6,92.2,110.8,89.8z"/>
				</g>
			</g>
			<g>
				<g>
					<path class="st0" d="M114.4,87.5c0.7,1.4,1.1,2.9,1.4,4.4l0.6,4.6c0.1,1.5,0.2,3.1,0.3,4.6c0.1,1.5,0.1,3.1,0.7,4.3l-0.9,0.5
						c-1-1.5-1-3.1-1.2-4.6c-0.1-1.5-0.2-3.1-0.3-4.6l-0.2-4.6C114.7,90.5,114.6,88.9,114.4,87.5z M114.4,87.5
						c0.3,1.6,0.7,3.1,1,4.5l0.5,4.6c0.2,1.5,0.3,3,0.4,4.6c0.2,1.5,0.3,3,1.1,4.2l-0.9,0.5c-0.7-1.5-0.7-3.2-0.8-4.7
						c0-1.5-0.1-3.1-0.1-4.6l-0.3-4.6C115.1,90.5,114.8,89,114.4,87.5z"/>
				</g>
			</g>
			<g>
				<g>
					<path class="st0" d="M118.9,91.2c0.9,0.9,1.2,2.2,1.4,3.5c0.1,1.3,0.1,2.5,0.1,3.8c-0.1,2.5,0.4,4.9,1,7.3
						c0.6,2.4,1.4,4.7,2,7.2c0.6,2.4,1,5,0.8,7.5l-1,0c0-2.4-0.4-4.9-1.1-7.2c-0.7-2.4-1.4-4.8-2-7.2c-0.5-2.4-0.9-5-0.7-7.5
						c0.1-1.2,0.3-2.5,0.3-3.7C119.8,93.5,119.6,92.3,118.9,91.2z M118.9,91.2c0.8,1,1.1,2.3,1.1,3.5c0.1,1.3,0,2.5-0.1,3.7
						c-0.1,2.5,0.3,4.9,0.9,7.3c0.7,2.4,1.4,4.8,2.1,7.1c0.7,2.4,1.2,4.9,1.2,7.5l-1,0c0.2-2.4-0.1-4.9-0.7-7.2
						c-0.6-2.4-1.4-4.8-1.9-7.2c-0.6-2.4-1-5-0.8-7.5c0.1-1.2,0.2-2.5,0.2-3.7C119.9,93.5,119.7,92.2,118.9,91.2z"/>
				</g>
			</g>
			<g>
				<g>
					<path class="st0" d="M125.1,91.5c0.3,1.8,0.8,3.8,1.2,5.8l0.8,5.9c0.2,2,0.3,4,0.5,5.9l0.2,6l-1,0.1l-0.5-5.9
						c-0.2-2-0.4-3.9-0.5-5.9l-0.4-5.9C125.3,95.4,125.3,93.3,125.1,91.5z M125.1,91.5c0.2,2.1,0.6,4,0.8,5.9l0.7,5.9
						c0.3,2,0.4,3.9,0.6,5.9l0.6,5.9l-1,0.1l-0.1-5.9c-0.1-2-0.3-3.9-0.4-5.9l-0.6-5.9C125.6,95.5,125.5,93.6,125.1,91.5z"/>
				</g>
			</g>
			<g>
				<g>
					<path class="st0" d="M132.7,92.4c-0.2,2.4-0.2,4.9-0.4,7.5l-0.2,7.5c0.1,2.5,0.1,5,0.1,7.5l0.4,7.5l-1,0.1L131,115
						c0-2.5-0.1-5-0.1-7.6l0.6-7.5C131.9,97.3,132.4,94.8,132.7,92.4z M132.7,92.4c-0.4,2.6-0.5,5.1-0.8,7.5l-0.3,7.5
						c0.1,2.5,0.1,5,0.2,7.5l0.8,7.5l-1,0.1l-0.3-7.5c0-2.5,0-5,0-7.5l0.4-7.5C132.1,97.5,132.5,95.1,132.7,92.4z"/>
				</g>
			</g>
			<g>
				<g>
					<path class="st0" d="M140.7,93.5c0.1,2.5,0.4,5.1,0.6,7.8l0.2,7.8c0,2.6-0.1,5.2-0.1,7.8c-0.1,2.6-0.3,5.3-1.4,7.8l-0.9-0.4
						c0.8-2.4,1-5,1-7.5c0-2.6,0-5.2,0.1-7.8c0.1-2.7,0.1-5.3,0.2-7.9C140.6,98.5,140.7,96,140.7,93.5z M140.7,93.5
						c0,2.7,0,5.3,0.2,7.9c0.1,2.6,0.2,5.1,0.2,7.6c0,2.6,0,5.2,0,7.8c0,2.6-0.1,5.3-1,7.8l-0.9-0.4c1-2.3,1.3-4.9,1.4-7.4
						c0.1-2.6,0.1-5.2,0.2-7.8l0-7.8C140.8,98.8,140.8,96.3,140.7,93.5z"/>
				</g>
			</g>
			<g>
				<g>
					<path class="st0" d="M145.5,90.6c0,1.3,0,2.6,0.1,4l0.4,3.9c0.1,1.3,0.2,2.7,0.3,4c0,1.3-0.1,2.7-0.4,4.1l-1-0.1
						c0.1-1.3,0.1-2.6,0-3.9c-0.1-1.3-0.2-2.6-0.2-4l0-4C144.9,93.2,145.1,91.8,145.5,90.6z M145.5,90.6c-0.2,1.3-0.3,2.6-0.3,3.9
						l0.3,3.9c0.2,1.3,0.3,2.6,0.4,4c0.1,1.3,0.1,2.7,0.1,4l-1-0.1c0.3-1.2,0.4-2.5,0.4-3.8c0-1.3-0.1-2.6-0.1-3.9l-0.2-4
						C145.2,93.2,145.3,91.9,145.5,90.6z"/>
				</g>
			</g>
			<g>
				<g>
					<path class="st0" d="M152.6,89.8c0.3,1.1,0.4,2.3,0.4,3.4l-0.3,3.5l-0.4,3.4l-0.6,3.4l0,0l-1-0.1l0.4-3.4l0.6-3.4l0.6-3.4
						C152.5,92.1,152.6,90.9,152.6,89.8z M152.6,89.8c0.1,1.1,0.1,2.3-0.1,3.4l-0.4,3.4l-0.3,3.4l-0.2,3.4l-1-0.1l0,0l0.8-3.3
						l0.7-3.4l0.5-3.4C152.8,92.1,152.8,90.9,152.6,89.8z"/>
				</g>
			</g>
			<g>
				<g>
					<path class="st0" d="M156.9,91.7c-0.2,2.3-0.2,4.9-0.3,7.5l-0.5,7.4c-0.2,2.5-0.5,5-0.7,7.4l-0.9,7.4l-1-0.1l0.6-7.5
						c0.2-2.5,0.4-5,0.7-7.4l0.9-7.4C156.1,96.6,156.6,94.1,156.9,91.7z M156.9,91.7c-0.3,2.6-0.4,5.1-0.7,7.4l-0.6,7.4
						c-0.2,2.5-0.4,5-0.6,7.4l-0.5,7.4l-1-0.1l1-7.4c0.3-2.5,0.5-4.9,0.8-7.4l0.8-7.4C156.3,96.8,156.7,94.4,156.9,91.7z"/>
				</g>
			</g>
			<g>
				<g>
					<path class="st0" d="M160.4,88.4c0,1,0.1,2,0.2,3.1l0.2,3.1c0.1,2.1-0.1,4.2-1,6.2l0,0l-0.9-0.4c0.3-0.9,0.5-1.9,0.7-2.9l0.2-3
						C159.8,92.5,159.8,90.4,160.4,88.4z M160.4,88.4c-0.4,2-0.2,4.1-0.2,6.1l0,3.1c0,1-0.2,2.1-0.4,3.1l-0.9-0.4l0,0
						c1-1.7,1.3-3.8,1.4-5.8l0.1-3.1C160.3,90.5,160.4,89.5,160.4,88.4z"/>
				</g>
			</g>
			<g>
				<g>
					<path class="st0" d="M165.2,89.7c-0.5,2-0.8,4.3-1.2,6.6l-1.5,6.5c-0.5,2.2-1.1,4.3-1.6,6.5l-1.8,6.4l-1-0.2l1.5-6.5
						c0.6-2.2,1.1-4.3,1.7-6.5l1.8-6.4C163.8,93.8,164.6,91.7,165.2,89.7z M165.2,89.7c-0.7,2.3-1.1,4.4-1.6,6.5l-1.6,6.5
						c-0.5,2.2-1,4.3-1.5,6.5l-1.4,6.5l-1-0.2l1.9-6.4c0.6-2.1,1.2-4.3,1.8-6.4l1.7-6.4C164,94.1,164.7,92,165.2,89.7z"/>
				</g>
			</g>
			<g>
				<g>
					<path class="st0" d="M168.1,86.8c0.1,0.9,0.4,2.1,0.6,3.2l0.2,3.3c-0.1,2.2-0.5,4.5-1.7,6.5l-0.9-0.4c0.4-1,0.6-2,0.8-3
						c0.1-1,0.3-2.1,0.4-3.2l0.2-3.2C167.9,88.9,168.1,87.7,168.1,86.8z M168.1,86.8c0,1.2,0.2,2.3,0.2,3.2l0,3.3
						c-0.1,1.1-0.2,2.2-0.3,3.3c-0.2,1.1-0.5,2.2-0.8,3.2l-0.9-0.4c0.5-0.9,0.9-1.9,1.2-2.9c0.3-1,0.4-2.1,0.6-3.1l0.1-3.2
						C168.2,89.1,168.3,88,168.1,86.8z"/>
				</g>
			</g>
			<g>
				<g>
					<path class="st0" d="M136.4,90.7c0.1,0.8,0.3,1.8,0.4,2.9c0.1,1,0.2,2,0.2,2.9c0,1,0,2,0,2.9l-0.2,2.9h-1l-0.2-2.9
						c0-1,0-2,0-2.9c0.1-1,0.1-2,0.2-2.9C136.1,92.5,136.4,91.5,136.4,90.7z M136.4,90.7c-0.1,1.1,0,2,0,2.9c0,1,0.1,1.9,0.1,2.9
						c0.1,1,0.1,1.9,0.1,2.9l0.2,2.9h-1l0.2-2.9c0-1,0.1-1.9,0.1-2.9c0-1,0-1.9,0.1-2.9C136.4,92.7,136.5,91.8,136.4,90.7z"/>
				</g>
			</g>
		</g>
	</g>
	<path class="st1" d="M120.3,65.4c0,0-9.2,4.5-14.3,5.7l-0.6,1.2c0,0,12.7-3.3,15.5-6.4L120.3,65.4z"/>
	<path class="st1" d="M138,67.4c-8.3,5.1-15.3,7.5-20.4,9.3l-7,2.2l0,1c0,0,19.1-5.4,24.9-8.8c0,0,2.2-1.2,4.8-3"/>
	<path class="st1" d="M153.5,65.8c0,0-4.7,6-11.8,9.4c0,0-18.3,8.6-20.4,8.6l-3.4,1.6l5.2,0l1.4-1c0,0,14.7-6.4,19-8.9
		c0,0,10.2-5.6,11.5-9.8"/>
	<path class="st1" d="M163.2,56.7c1.2,1.2,2.4,3.7,1.4,9.1c0,0-3.8,8-10.8,11.9c0,0-10.2,8-18.8,8.4l-5.8,1.3c0,0,3.6,0.8,9.1-0.3
		l3.1-0.1c0,0,0.1-1.2,1.6-1.9c0,0,12.6-4.7,20-12.8s0.9-16.4,0.9-16.4"/>
	<path class="st1" d="M173.3,69.3c0,0-6.4,11.8-13.2,14.2c0,0-6.3,2.8-10.8,2.9l-3.7,0.7c0,0,10.2,0.6,16.6-2.7
		C162.1,84.4,175.3,77,173.3,69.3z"/>
	<path class="st5" d="M116.3,62.7c-4,1.6-8.5,2.3-12.9,2.2"/>
	<path class="st5" d="M119.5,65c-2.7,1.6-4.2,1.9-7.5,2.4s-6.5,0.5-9.8,0.4"/>
	<path class="st5" d="M123.9,67.1c-1.1,0.5-2.1,0.9-3.2,1.3c-1.1,0.4-2.1,0.7-3.2,1.1c-0.9,0.3-1.7,0.6-2.6,0.9
		c-1.2,0.3-2.4,0.5-3.6,0.7c-3.1,0.4-2.6,0.9-5.7,1"/>
	<path class="st5" d="M104.9,74.4c5.7,0.5,11.4-1.4,16.4-3.7c2-0.9,3.9-2,5.8-3"/>
	<path class="st5" d="M105.7,76.7c7.2-1,14.2-3.3,20.5-6.5c1.2-0.6,3.1-1.6,4.3-2.2"/>
	<path class="st5" d="M144,68c-2.3,1.8-5.1,3.1-7.9,4.3c-2.2,1-4.4,2-6.7,3c-1.9,0.8-3.7,1.7-5.7,2.4c-4.1,1.6-8.4,2.9-12.7,4"/>
	<path class="st5" d="M146.2,68.1c-4.5,3.4-10.3,6.6-15.6,9.1c-2.6,1.2-5.2,2.5-7.8,3.7c-3,1.4-6.2,2.8-9.6,3.3"/>
	<path class="st5" d="M149.3,66.7c-2.6,3.7-5.5,5.9-10.1,7.7c-1,0.4-1.9,0.7-2.9,1.1c-1.2,0.5-2.3,1-3.4,1.6
		c-5.7,2.9-11.4,5.8-17.6,7.9"/>
	<path class="st5" d="M156.5,66.4c-0.3,1.1-0.8,2.2-1.6,3.2c-2,2.6-5.3,4.3-8.4,5.9c-2.5,1.2-5,2.5-7.7,3.3
		c-0.9,0.3-1.9,0.8-2.7,1.2c-1.5,0.9-4.5,2.5-5.7,3.6c-1.4,1.3-3,1.9-4.8,3.2"/>
	<path class="st5" d="M160.4,61.5c0.8,3.7-0.6,8.5-3.6,11.2c-1.6,1.4-3.6,2.5-5.6,3.5c-2.3,1.2-4.6,2.4-7.1,3.3
		c-1,0.4-2.1,0.7-3.2,1.1c-1.2,0.5-2.4,1-3.6,1.5c-3.5,1.6-7.1,3.2-10.6,4.9"/>
	<path class="st5" d="M161.7,60.8c0.7,1.8,0.6,3.3,0.5,5.1c0,0.9,0,1.9-0.4,2.8c-0.4,1-1.2,1.9-2,2.7c-3.7,3.7-8.7,6.3-13.6,8.8
		c-1.8,0.9-3.7,1.9-5.6,2.7c-3,1.3-6.4,2.2-8.9,4.1"/>
	<path class="st5" d="M165.5,54.6c1.2,1.6,2.6,4.2,2.8,6.1c0.2,1.8-0.1,3.6-0.5,5.4c-0.5,2-1.3,4-2.5,5.8c-1.3,1.9-3,3.5-4.9,5
		c-5.2,4.3-11.4,7.6-18.2,9.9"/>
	<path class="st5" d="M166.1,53.3c1.3,0.8,2.5,1.8,3.3,3.1c0.4,0.7,0.7,1.5,1,2.3c0.5,1.8,0.9,3.6,0.8,5.4c-0.1,1.9-0.8,3.7-1.6,5.4
		c-0.4,0.8-0.7,1.7-1.3,2.4c-0.8,1.2-1.9,2.2-3.1,3.2c-2.2,1.8-4.6,3.4-7.1,4.9c-1,0.6-2,1.1-2.9,1.8c-0.7,0.6-1.2,1.2-1.9,1.7
		c-1.6,1.2-3.9,1.7-5.5,2.9"/>
	<path class="st3" d="M119.5,38.2c0.4-1.3,1.1-2.8,2.4-3.9c0.7-0.5,1.5-0.9,2.3-1.2c2-0.7,7.1-2.3,7.8-2.8c0.8-0.6,4.3-3.7,5.7-6.5
		c0.3-0.6,1.1-0.8,1.6-0.3l4.9,4.9c0,0,1,1.4,3.7,2.8c0.3,0.2,0.7,0.3,1.2,0.5c7.2,2.6,11.7,9.7,11.3,17.3v-0.9"/>
	<path class="st1" d="M145.1,47.9c0,0,14,6.7,17.9,7.7l0.4,0.9c0,0-16.6-5.9-18.8-8.2L145.1,47.9z"/>
	<path class="st1" d="M132.5,45.1c0,0-1,3.6,5.7,7.7c6.4,3.9,11.9,5.8,15.8,7.2l5.5,1.7l0,0.8c0,0-14.8-4.2-19.3-6.8
		c0,0-9-4.7-9.5-10L132.5,45.1z"/>
	<path class="st1" d="M129.2,46.2c0,0-3.9,2.6-3,5.3c0,0,3.6,4.6,9.1,7.3c0,0,14.2,6.6,15.8,6.7l2.6,1.2l-4,0l-1.1-0.8
		c0,0-11.4-5-14.7-6.9c0,0-7.9-4.4-8.9-7.6c-1.1-3.2,3.9-6.7,3.9-6.7l1.5-1.1C130.4,43.7,130.4,45.2,129.2,46.2z"/>
	<path class="st1" d="M130.1,42.3c0,0-9.1,0.2-10.3,1.4c0,0-3.5,0.8-2.2,7.8c0,0,2.9,6.2,8.4,9.2c0,0,7.9,6.2,14.6,6.5l4.5,1
		c0,0-2.8,0.6-7-0.3l-2.4-0.1c0,0-0.1-0.9-1.2-1.4c0,0-9.8-3.6-15.5-9.9c-5.8-6.3-1-12.4-1-12.4s2.9-3.1,12-2.4L130.1,42.3z"/>
	<path class="st1" d="M110.9,54.2c0,0,4.9,9.1,10.2,11c0,0,4.9,2.2,8.4,2.3l2.9,0.6c0,0-7.9,0.5-12.9-2.1
		C119.5,65.9,109.4,60.2,110.9,54.2z"/>
	<path class="st5" d="M149,46c0.8,0.3,1.5,0.8,2.3,1.3c4,2.4,8.9,3.7,13.7,3.6"/>
	<path class="st5" d="M147.7,46.4c1.3,1.5,1.9,2.8,3.7,3.9c2.1,1.3,4.5,2,7,2.4c2.5,0.4,5.1,0.4,7.6,0.3"/>
	<path class="st5" d="M136.4,44.6c2.7,2.5,5.9,4.6,9.4,6.3c1.1,0.5,2.3,1,3.4,1.5c0.8,0.4,1.6,0.7,2.5,1c0.8,0.3,1.7,0.5,2.5,0.8
		c0.7,0.2,1.3,0.5,2,0.7c0.9,0.3,1.9,0.4,2.8,0.5c2.4,0.3,2,0.7,4.4,0.7"/>
	<path class="st5" d="M163.9,58.2c-4.4,0.4-8.8-1.1-12.7-2.9c-3.9-1.8-7.5-4.1-11.5-5.8c-0.8-0.3-1.7-0.6-2.4-1.1
		c-1.3-0.9-1.9-2.3-2.5-3.6"/>
	<path class="st5" d="M163.2,60c-5.6-0.8-11-2.5-15.9-5c-0.9-0.5-1.8-0.9-2.7-1.4c-2.7-1.4-5.7-2.5-7.5-4.7
		c-1.2-1.4-2.3-2.6-3.1-4.1"/>
	<path class="st5" d="M129.5,46.1c0.3,2.7,1.8,5.2,4,7c1.8,1.4,3.9,2.4,6.1,3.4c1.7,0.8,3.4,1.5,5.2,2.3c1.5,0.6,2.9,1.3,4.4,1.9
		c3.2,1.3,6.5,2.3,9.9,3.1"/>
	<path class="st5" d="M128.8,46.5c0.2,1.9,0.4,4,1.7,5.6c0.5,0.6,1.2,1.2,1.8,1.7c3.5,2.6,7.6,4.7,11.6,6.6c2,1,4,1.9,6,2.9
		c2.4,1.1,4.8,2.2,7.4,2.6"/>
	<path class="st5" d="M127.5,47.3c-0.2,1.4,0.5,2.8,1.4,4.1c2,2.9,4.8,5.4,8.4,6.8c0.7,0.3,1.5,0.5,2.2,0.8c0.9,0.4,1.8,0.8,2.6,1.3
		c4.4,2.3,8.9,4.5,13.6,6.1"/>
	<path class="st5" d="M130.3,43.3c-2.4,1.1-4.9,2.5-6,4.7c-1,2.1-0.6,4.5,0.8,6.4c1.6,2,4.1,3.3,6.5,4.5c1.9,1,3.8,1.9,5.9,2.5
		c0.7,0.2,1.5,0.6,2.1,0.9c1.1,0.7,3.5,1.9,4.4,2.8c1.1,1,2.3,1.5,3.7,2.5"/>
	<path class="st5" d="M130,42.3c-2.6,1.2-6,1.6-7.8,3.6c-0.7,0.8-1.1,1.8-1.3,2.8c-0.6,2.9,0.4,6,2.8,8.2c1.3,1.1,2.8,1.9,4.4,2.7
		c1.8,0.9,3.6,1.8,5.5,2.5c0.8,0.3,1.6,0.6,2.4,0.9c0.9,0.4,1.9,0.8,2.8,1.2c2.7,1.3,5.5,2.5,8.2,3.8"/>
	<path class="st5" d="M129.3,42.1c-1.8,0.2-3.5,0.6-5.2,1.1c-0.7,0.2-1.4,0.5-2,1c-0.4,0.4-0.7,0.8-1,1.2c-0.4,0.6-0.8,1.2-1,1.8
		c-0.6,1.4-0.6,2.9-0.5,4.3c0,0.7,0,1.4,0.3,2.1c0.3,0.8,0.9,1.5,1.5,2.1c2.9,2.9,6.8,4.9,10.6,6.8c1.4,0.7,2.8,1.5,4.3,2.1
		c2.4,1,4.9,1.7,6.9,3.2"/>
	<path class="st5" d="M129.5,40.7c-2.4-0.1-4.9-0.1-7.3,0.1c-1.3,0.1-2.7,0.3-3.9,0.9c-0.8,0.4-1.4,1-1.9,1.7
		c-0.9,1.2-1.5,2.6-1.7,4c-0.2,1.4,0,2.8,0.4,4.2c0.4,1.6,1,3.1,1.9,4.5c1,1.5,2.3,2.7,3.8,3.9c4,3.3,8.9,5.9,14.1,7.6"/>
	<path class="st5" d="M127.6,39.1c-1.5-0.1-3.1-0.2-4.5,0.2c-1.3,0.3-2.4,0.8-3.5,1.3c-2.1,1-4.3,2.1-5.4,3.9
		c-0.3,0.6-0.6,1.2-0.7,1.8c-0.4,1.4-0.7,2.8-0.6,4.2c0.1,1.4,0.6,2.8,1.2,4.2c0.3,0.6,0.6,1.3,1,1.9c0.6,0.9,1.5,1.7,2.4,2.5
		c1.7,1.4,3.5,2.7,5.5,3.8c0.8,0.4,1.6,0.9,2.2,1.4c0.5,0.4,0.9,0.9,1.5,1.3c1.3,0.9,3,1.3,4.3,2.3"/>
	<path class="st1" d="M145,28.7c0,0,0.1,12.7-10.5,16.1h2.9c0,0,11.6-5.2,11.6-12.9L145,28.7z"/>
	<path class="st1" d="M135.9,26.6c0,0,2.6,10.2-6.8,13.7l0.5,0.7c0,0,11.2-0.9,7.4-15.8L135.9,26.6z"/>
	<path class="st1" d="M149.9,32.1c0,0,3.2,12.9-7.1,14.9l1.8,1.2l4.1-2.1c0,0,5.6-5.9,5.7-11.3L149.9,32.1z"/>
	<path class="st5" d="M133.5,29.5c0,0,2.7,7.5-6.7,9.3"/>
	<path class="st5" d="M130.8,30.9c0,0,1.6,4.1-6.4,7.2"/>
	<path class="st5" d="M138.5,23.3c1.3,0.9,2.3,2.2,2.8,3.8c0.1,0.5,0.2,0.9,0.3,1.4c0.2,0.9,0.4,1.9,0.5,2.9
		c0.3,3.1-0.6,6.2-2.5,8.7s-4.6,4.2-7.6,4.8c-0.8,0.2-1.6,0.3-2.3,0.7"/>
	<path class="st5" d="M149.1,31.8c-0.6,3.1-2,6.1-4,8.6c-1.8,2.3-4.3,4.2-7.3,4.8"/>
	<path class="st5" d="M149.3,32c-0.1,3.8-1,7.5-2.5,10.9c-0.2,0.5-0.4,0.9-0.7,1.3c-0.7,1.2-1.8,2.3-3.1,3"/>
	<path class="st5" d="M155.5,36.3c0.1,0.5,0.3,1,0.4,1.5c0.1,0.5,0.3,1,0.3,1.5c0.1,0.8-0.1,1.6-0.4,2.4c-0.7,1.9-1.9,3.6-3.6,4.7"
		/>
	<path class="st5" d="M157.9,39.2c0.2,1.1,0.5,2.2,0.1,3.3c-0.1,0.4-0.3,0.7-0.6,1.1c-0.8,1.3-1.8,2.5-3.1,3.2"/>
</g>
</svg>
